# Blender 4.1.1
# www.blender.org
mtllib Bullet.mtl
o 立方体
v -0.688622 -0.924889 0.779079
v -0.688622 0.924889 0.779079
v -0.688622 -0.924889 -0.779079
v -0.688622 0.924889 -0.779079
v 0.688622 -0.924889 0.779079
v 0.688622 0.924889 0.779079
v 0.688622 -0.924889 -0.779079
v 0.688622 0.924889 -0.779079
v 0.000000 -0.995601 -0.979887
v 0.000000 0.995601 -0.979887
v 0.000000 -0.995601 0.979887
v 0.000000 0.995601 0.979887
v -0.343903 -0.984098 -0.850464
v -0.343903 0.984098 0.850464
v -0.343903 0.984098 -0.850464
v -0.343903 -0.984098 0.850464
v 0.357464 0.959060 -0.886100
v 0.357464 -0.959060 0.886100
v 0.357464 -0.959060 -0.886100
v 0.357464 0.959060 0.886100
v -0.956676 -1.000000 0.000000
v -0.956676 1.000000 0.000000
v 0.956676 -1.000000 0.000000
v 0.956676 1.000000 0.000000
v 0.000000 1.380992 0.000000
v 0.000000 -1.380992 0.000000
v -0.426640 -1.296567 0.000000
v -0.426640 1.296567 0.000000
v 0.478249 1.270367 0.000000
v 0.478249 -1.270367 0.000000
v -0.881432 -1.000000 0.304144
v 0.881432 1.000000 0.304144
v 0.000000 1.252548 0.466610
v 0.000000 -1.252548 0.466610
v -0.343076 -1.230754 0.389466
v -0.343076 1.230754 0.389466
v 0.376846 1.188009 0.415599
v 0.376846 -1.188009 0.415599
v -0.881432 1.000000 0.304144
v 0.881432 -1.000000 0.304144
v -0.881432 1.000000 -0.304144
v 0.881432 -1.000000 -0.304144
v -0.881432 -1.000000 -0.304144
v 0.881432 1.000000 -0.304144
v 0.000000 1.252548 -0.466610
v 0.000000 -1.252548 -0.466610
v -0.343076 -1.230754 -0.389466
v -0.343076 1.230754 -0.389466
v 0.376846 1.188009 -0.415599
v 0.376846 -1.188009 -0.415599
v -0.941987 0.000000 1.067065
v -0.941987 0.000000 -1.067065
v 0.941987 0.000000 -1.067065
v 0.941987 0.000000 1.067065
v 0.000000 0.000000 1.334385
v 0.000000 0.000000 -1.334385
v -0.619416 0.000000 -1.217646
v -0.619416 0.000000 1.217646
v 0.542935 0.000000 1.236277
v 0.542935 0.000000 -1.236277
v 1.372279 0.000000 0.000000
v -1.372279 0.000000 0.000000
v -1.221581 0.000000 0.573425
v 1.221581 0.000000 0.573425
v 1.221581 0.000000 -0.573425
v -1.221581 0.000000 -0.573425
v -0.847567 0.500000 0.972163
v -0.847567 0.500000 -0.972163
v 0.847567 0.500000 -0.972163
v 0.847567 0.500000 0.972163
v 0.000000 0.500000 1.191720
v 0.000000 0.500000 -1.191720
v -0.507913 0.500000 -1.092624
v -0.507913 0.500000 1.092624
v 0.482548 0.500000 1.131404
v 0.482548 0.500000 -1.131404
v 1.245052 0.500000 0.000000
v -1.245052 0.500000 0.000000
v -1.110712 0.500000 0.477840
v 1.110712 0.500000 0.477840
v 1.110712 0.500000 -0.477840
v -1.110712 0.500000 -0.477840
v -0.847567 -0.500000 -0.972163
v 0.847567 -0.500000 -0.972163
v 0.847567 -0.500000 0.972163
v 0.000000 -0.500000 1.191720
v 0.000000 -0.500000 -1.191720
v -0.507913 -0.500000 -1.092624
v -0.507913 -0.500000 1.092624
v 0.482548 -0.500000 1.131404
v 0.482548 -0.500000 -1.131404
v 1.245052 -0.500000 0.000000
v -1.245052 -0.500000 0.000000
v -1.110712 -0.500000 0.477840
v 1.110712 -0.500000 0.477840
v 1.110712 -0.500000 -0.477840
v -1.110712 -0.500000 -0.477840
v -0.847567 -0.500000 0.972163
vn -0.7755 0.4777 -0.4128
vn 0.3480 0.4926 -0.7976
vn 0.7755 0.4777 0.4128
vn -0.2925 0.4842 0.8247
vn 0.2300 -0.8713 0.4335
vn -0.2417 0.8558 0.4574
vn 0.2089 0.8759 0.4348
vn -0.1600 -0.8705 0.4655
vn 0.1080 0.4913 0.8643
vn -0.1674 0.4858 -0.8579
vn -0.2925 0.4842 -0.8247
vn -0.4156 -0.8571 0.3043
vn -0.1946 0.8771 0.4391
vn -0.1674 0.4858 0.8579
vn 0.3480 0.4926 0.7976
vn 0.3903 0.8717 0.2963
vn 0.2044 -0.8753 0.4382
vn 0.1080 0.4913 -0.8643
vn 0.1971 -0.9452 -0.2602
vn 0.4884 0.8642 -0.1208
vn -0.1200 0.9572 -0.2635
vn -0.4848 -0.8664 -0.1199
vn -0.1901 -0.9605 -0.2031
vn 0.2187 0.9456 -0.2408
vn -0.4142 0.8787 -0.2374
vn 0.3879 -0.8815 -0.2693
vn 0.8487 0.4721 -0.2386
vn -0.8487 0.4721 0.2386
vn -0.7755 0.4777 0.4128
vn 0.1971 -0.9452 0.2602
vn 0.4884 0.8642 0.1208
vn -0.1200 0.9572 0.2635
vn -0.4848 -0.8664 0.1199
vn -0.1901 -0.9605 0.2031
vn 0.2187 0.9456 0.2408
vn -0.4142 0.8787 0.2374
vn 0.3879 -0.8815 0.2693
vn 0.8487 0.4721 0.2386
vn 0.7755 0.4777 -0.4128
vn 0.2300 -0.8713 -0.4335
vn -0.2417 0.8558 -0.4574
vn 0.2089 0.8759 -0.4348
vn -0.1600 -0.8705 -0.4655
vn -0.4156 -0.8571 -0.3043
vn -0.1946 0.8771 -0.4391
vn 0.3903 0.8717 -0.2963
vn 0.2044 -0.8753 -0.4382
vn -0.8487 0.4721 -0.2386
vn -0.9350 -0.2379 -0.2629
vn 0.8488 -0.2746 -0.4518
vn 0.9350 -0.2379 0.2629
vn -0.8488 -0.2746 0.4518
vn -0.9350 -0.2379 0.2629
vn 0.9350 -0.2379 -0.2629
vn 0.1193 -0.2724 -0.9547
vn 0.3888 -0.2339 0.8912
vn -0.1844 -0.2697 0.9451
vn -0.3193 -0.2963 -0.9002
vn -0.1844 -0.2697 -0.9451
vn 0.1193 -0.2724 0.9547
vn -0.3193 -0.2963 0.9002
vn 0.8488 -0.2746 0.4518
vn 0.3888 -0.2339 -0.8912
vn -0.8488 -0.2746 -0.4518
vn -0.9353 0.2544 -0.2458
vn 0.8426 0.2497 -0.4772
vn 0.9353 0.2544 0.2458
vn -0.8426 0.2497 0.4772
vn -0.9353 0.2544 0.2458
vn 0.9353 0.2544 -0.2458
vn 0.1734 0.2222 -0.9595
vn 0.3789 0.2411 0.8935
vn -0.1780 0.2759 0.9446
vn -0.4102 0.2442 -0.8787
vn -0.1780 0.2759 -0.9446
vn 0.1734 0.2222 0.9595
vn -0.4102 0.2442 0.8787
vn 0.8426 0.2497 0.4772
vn 0.3789 0.2411 -0.8935
vn -0.8426 0.2497 -0.4772
vn -0.7764 -0.4926 -0.3931
vn 0.3115 -0.5125 -0.8002
vn 0.7764 -0.4926 0.3931
vn -0.2572 -0.5006 0.8266
vn 0.2709 -0.3783 0.8851
vn -0.3380 -0.3699 -0.8654
vn -0.2572 -0.5006 -0.8266
vn -0.3380 -0.3699 0.8654
vn 0.3115 -0.5125 0.8002
vn 0.2709 -0.3783 -0.8851
vn 0.8470 -0.4885 -0.2095
vn -0.8470 -0.4885 0.2095
vn -0.7764 -0.4926 0.3931
vn 0.8470 -0.4885 0.2095
vn 0.7764 -0.4926 -0.3931
vn -0.8470 -0.4885 -0.2095
vn -0.7764 0.4926 -0.3931
vn 0.3115 0.5125 -0.8002
vn 0.7764 0.4926 0.3931
vn -0.2572 0.5006 0.8266
vn 0.3903 -0.8717 0.2963
vn -0.4156 0.8571 0.3043
vn 0.2044 0.8753 0.4382
vn -0.1946 -0.8771 0.4391
vn 0.2709 0.3783 0.8851
vn -0.3380 0.3699 -0.8654
vn -0.2572 0.5006 -0.8266
vn -0.2417 -0.8558 0.4574
vn -0.1600 0.8705 0.4655
vn -0.3380 0.3699 0.8654
vn 0.3115 0.5125 0.8002
vn 0.2300 0.8713 0.4335
vn 0.2089 -0.8759 0.4348
vn 0.2709 0.3783 -0.8851
vn 0.2187 -0.9456 -0.2408
vn 0.3879 0.8815 -0.2693
vn -0.1901 0.9605 -0.2031
vn -0.4142 -0.8787 -0.2374
vn -0.1200 -0.9572 -0.2635
vn 0.1971 0.9452 -0.2602
vn -0.4848 0.8664 -0.1199
vn 0.4884 -0.8642 -0.1208
vn 0.8470 0.4885 -0.2095
vn -0.8470 0.4885 0.2095
vn -0.7764 0.4926 0.3931
vn 0.2187 -0.9456 0.2408
vn 0.3879 0.8815 0.2693
vn -0.1901 0.9605 0.2031
vn -0.4142 -0.8787 0.2374
vn -0.1200 -0.9572 0.2635
vn 0.1971 0.9452 0.2602
vn -0.4848 0.8664 0.1199
vn 0.4884 -0.8642 0.1208
vn 0.8470 0.4885 0.2095
vn 0.7764 0.4926 -0.3931
vn 0.3903 -0.8717 -0.2963
vn -0.4156 0.8571 -0.3043
vn 0.2044 0.8753 -0.4382
vn -0.1946 -0.8771 -0.4391
vn -0.2417 -0.8558 -0.4574
vn -0.1600 0.8705 -0.4655
vn 0.2300 0.8713 -0.4335
vn 0.2089 -0.8759 -0.4348
vn -0.8470 0.4885 -0.2095
vn -0.9353 -0.2544 -0.2458
vn 0.8426 -0.2497 -0.4772
vn 0.9353 -0.2544 0.2458
vn -0.8426 -0.2497 0.4772
vn -0.9353 -0.2544 0.2458
vn 0.9353 -0.2544 -0.2458
vn 0.1734 -0.2222 -0.9595
vn 0.3789 -0.2411 0.8935
vn -0.1780 -0.2759 0.9446
vn -0.4102 -0.2442 -0.8787
vn -0.1780 -0.2759 -0.9446
vn 0.1734 -0.2222 0.9595
vn -0.4102 -0.2442 0.8787
vn 0.8426 -0.2497 0.4772
vn 0.3789 -0.2411 -0.8935
vn -0.8426 -0.2497 -0.4772
vn -0.9350 0.2379 -0.2629
vn 0.8488 0.2746 -0.4518
vn 0.9350 0.2379 0.2629
vn -0.8488 0.2746 0.4518
vn -0.9350 0.2379 0.2629
vn 0.9350 0.2379 -0.2629
vn 0.1193 0.2724 -0.9547
vn 0.3888 0.2339 0.8912
vn -0.1844 0.2697 0.9451
vn -0.3193 0.2963 -0.9002
vn -0.1844 0.2697 -0.9451
vn 0.1193 0.2724 0.9547
vn -0.3193 0.2963 0.9002
vn 0.8488 0.2746 0.4518
vn 0.3888 0.2339 -0.8912
vn -0.8488 0.2746 -0.4518
vn -0.7755 -0.4777 -0.4128
vn 0.3480 -0.4926 -0.7976
vn 0.7755 -0.4777 0.4128
vn -0.2925 -0.4842 0.8247
vn 0.1080 -0.4913 0.8643
vn -0.1674 -0.4858 -0.8579
vn -0.2925 -0.4842 -0.8247
vn -0.1674 -0.4858 0.8579
vn 0.3480 -0.4926 0.7976
vn 0.1080 -0.4913 -0.8643
vn 0.8487 -0.4721 -0.2386
vn -0.8487 -0.4721 0.2386
vn -0.7755 -0.4777 0.4128
vn 0.8487 -0.4721 0.2386
vn 0.7755 -0.4777 -0.4128
vn -0.8487 -0.4721 -0.2386
vt 0.920342 0.217174
vt 0.878344 0.291904
vt 0.855207 0.241713
vt 0.739637 0.321975
vt 0.746613 0.386150
vt 0.706633 0.347983
vt 0.337644 0.401624
vt 0.253387 0.386150
vt 0.293367 0.347983
vt 0.176480 0.263585
vt 0.121656 0.291904
vt 0.144793 0.241713
vt 0.396818 0.141717
vt 0.378661 0.211014
vt 0.346339 0.187037
vt 0.103342 0.369136
vt 0.152040 0.320235
vt 0.147475 0.395000
vt 0.220253 0.363308
vt 0.193672 0.425722
vt 0.352820 0.107922
vt 0.283538 0.136397
vt 0.314085 0.074512
vt 0.220470 0.292832
vt 0.260363 0.321975
vt 0.847960 0.320235
vt 0.779530 0.292832
vt 0.823520 0.263585
vt 0.246910 0.116794
vt 0.229281 0.050065
vt 0.188553 0.337836
vt 0.270960 0.452869
vt 0.311992 0.165266
vt 0.779747 0.363308
vt 0.603182 0.141717
vt 0.599669 0.041721
vt 0.647180 0.107922
vt 0.729040 0.452869
vt 0.814319 0.498706
vt 0.713022 0.502792
vt 0.896658 0.369136
vt 0.899828 0.461351
vt 0.852525 0.395000
vt 0.770719 0.050065
vt 0.675576 0.006771
vt 0.786408 0.000100
vt 0.685915 0.074512
vt 0.806328 0.425722
vt 0.947191 0.296777
vt 0.957426 0.400805
vt 0.552521 0.206091
vt 0.536692 0.110577
vt 0.612542 0.468491
vt 0.662356 0.401624
vt 0.052809 0.296777
vt 0.000100 0.191711
vt 0.079658 0.217174
vt 0.400332 0.041721
vt 0.185681 0.498706
vt 0.286978 0.502792
vt 0.100172 0.461351
vt 0.324424 0.006771
vt 0.213592 0.000100
vt 0.042574 0.400805
vt 0.463308 0.110577
vt 0.447479 0.206091
vt 0.387458 0.468492
vt 0.621339 0.211014
vt 0.653661 0.187037
vt 0.716462 0.136397
vt 0.753090 0.116794
vt 0.811447 0.337836
vt 0.688008 0.165266
vt 0.999900 0.191711
vt 0.964031 0.098261
vt 0.837380 0.101191
vt 0.887179 0.034125
vt 0.644544 0.261181
vt 0.618129 0.345682
vt 0.579475 0.285754
vt 0.464041 0.404458
vt 0.420525 0.285755
vt 0.499900 0.311295
vt 0.206886 0.154905
vt 0.118321 0.157167
vt 0.162620 0.101191
vt 0.035969 0.098261
vt 0.112821 0.034125
vt 0.535959 0.404458
vt 0.500100 0.311295
vt 0.749906 0.251423
vt 0.679819 0.238349
vt 0.720288 0.210010
vt 0.355456 0.261181
vt 0.293142 0.282215
vt 0.320181 0.238349
vt 0.250094 0.251423
vt 0.237822 0.177827
vt 0.279712 0.210010
vt 0.793114 0.154905
vt 0.798810 0.216442
vt 0.762178 0.177827
vt 0.201190 0.216442
vt 0.381871 0.345682
vt 0.706858 0.282215
vt 0.881679 0.157167
vt 0.672413 0.306853
vt 0.172633 0.196016
vt 0.327587 0.306853
vt 0.827367 0.196016
vt 0.500100 0.205122
vt 0.499900 0.205122
vt 0.999545 0.298071
vt 0.000455 0.298071
s 0
usemtl マテリアル.001
f 82/1/1 4/2/1 68/3/1
f 76/4/2 8/5/2 69/6/2
f 80/7/3 6/8/3 70/9/3
f 74/10/4 2/11/4 67/12/4
f 38/13/5 5/14/5 18/15/5
f 36/16/6 2/11/6 14/17/6
f 33/18/7 20/19/7 37/20/7
f 34/21/8 16/22/8 35/23/8
f 20/19/9 71/24/9 75/25/9
f 15/26/10 72/27/10 73/28/10
f 4/2/11 73/28/11 68/3/11
f 35/23/12 1/29/12 31/30/12
f 33/18/13 14/17/13 12/31/13
f 71/24/14 14/17/14 74/10/14
f 6/8/15 75/25/15 70/9/15
f 37/20/16 6/8/16 32/32/16
f 34/21/17 18/15/17 11/33/17
f 72/27/18 17/34/18 76/4/18
f 50/35/19 26/36/19 46/37/19
f 44/38/20 29/39/20 24/40/20
f 48/41/21 25/42/21 45/43/21
f 43/44/22 27/45/22 21/46/22
f 47/47/23 26/36/23 27/45/23
f 49/48/24 25/42/24 29/39/24
f 41/49/25 28/50/25 48/41/25
f 42/51/26 30/52/26 50/35/26
f 44/38/27 77/53/27 81/54/27
f 39/55/28 78/56/28 79/57/28
f 2/11/29 79/57/29 67/12/29
f 26/58/30 38/13/30 34/21/30
f 29/59/31 32/32/31 24/60/31
f 25/61/32 36/16/32 33/18/32
f 27/62/33 31/30/33 21/63/33
f 26/58/34 35/23/34 27/62/34
f 25/61/35 37/20/35 29/59/35
f 28/64/36 39/55/36 36/16/36
f 30/65/37 40/66/37 38/13/37
f 77/67/38 32/32/38 80/7/38
f 8/5/39 81/54/39 69/6/39
f 7/68/40 50/35/40 19/69/40
f 4/2/41 48/41/41 15/26/41
f 17/34/42 45/43/42 49/48/42
f 13/70/43 46/37/43 47/47/43
f 3/71/44 47/47/44 43/44/44
f 15/26/45 45/43/45 10/72/45
f 8/5/46 49/48/46 44/38/46
f 19/69/47 46/37/47 9/73/47
f 78/74/48 41/49/48 82/1/48
f 62/75/49 97/76/49 93/77/49
f 84/78/50 65/79/50 96/80/50
f 61/81/51 95/82/51 92/83/51
f 98/84/52 63/85/52 94/86/52
f 94/86/53 62/87/53 93/88/53
f 96/80/54 61/89/54 92/90/54
f 56/91/55 91/92/55 87/93/55
f 85/94/56 59/95/56 90/96/56
f 55/97/57 89/98/57 86/99/57
f 83/100/58 57/101/58 88/102/58
f 88/102/59 56/91/59 87/93/59
f 90/96/60 55/97/60 86/99/60
f 58/103/61 98/84/61 89/98/61
f 64/104/62 85/94/62 95/82/62
f 60/105/63 84/78/63 91/92/63
f 66/106/64 83/100/64 97/76/64
f 62/75/65 82/1/65 66/106/65
f 69/6/66 65/79/66 53/107/66
f 61/81/67 80/7/67 64/104/67
f 67/12/68 63/85/68 51/108/68
f 79/57/69 62/87/69 63/85/69
f 81/54/70 61/89/70 65/79/70
f 56/91/71 76/4/71 60/105/71
f 70/9/72 59/95/72 54/109/72
f 55/97/73 74/10/73 58/103/73
f 68/3/74 57/101/74 52/110/74
f 73/28/75 56/91/75 57/101/75
f 75/25/76 55/97/76 59/95/76
f 58/103/77 67/12/77 51/108/77
f 64/104/78 70/9/78 54/109/78
f 60/105/79 69/6/79 53/107/79
f 66/106/80 68/3/80 52/110/80
f 97/76/81 3/71/81 43/44/81
f 91/92/82 7/68/82 19/69/82
f 95/82/83 5/14/83 40/66/83
f 89/98/84 1/29/84 16/22/84
f 18/15/85 86/99/85 11/33/85
f 13/70/86 87/93/86 9/73/86
f 3/71/87 88/102/87 13/70/87
f 86/99/88 16/22/88 11/33/88
f 5/14/89 90/96/89 18/15/89
f 87/93/90 19/69/90 9/73/90
f 42/51/91 92/90/91 23/111/91
f 31/30/92 93/88/92 21/63/92
f 1/29/93 94/86/93 31/30/93
f 92/83/94 40/66/94 23/112/94
f 7/68/95 96/80/95 42/51/95
f 93/77/96 43/44/96 21/46/96
f 82/1/97 41/49/97 4/2/97
f 76/4/98 17/34/98 8/5/98
f 80/7/99 32/32/99 6/8/99
f 74/10/100 14/17/100 2/11/100
f 38/13/101 40/66/101 5/14/101
f 36/16/102 39/55/102 2/11/102
f 33/18/103 12/31/103 20/19/103
f 34/21/104 11/33/104 16/22/104
f 20/19/105 12/31/105 71/24/105
f 15/26/106 10/72/106 72/27/106
f 4/2/107 15/26/107 73/28/107
f 35/23/108 16/22/108 1/29/108
f 33/18/109 36/16/109 14/17/109
f 71/24/110 12/31/110 14/17/110
f 6/8/111 20/19/111 75/25/111
f 37/20/112 20/19/112 6/8/112
f 34/21/113 38/13/113 18/15/113
f 72/27/114 10/72/114 17/34/114
f 50/35/115 30/52/115 26/36/115
f 44/38/116 49/48/116 29/39/116
f 48/41/117 28/50/117 25/42/117
f 43/44/118 47/47/118 27/45/118
f 47/47/119 46/37/119 26/36/119
f 49/48/120 45/43/120 25/42/120
f 41/49/121 22/113/121 28/50/121
f 42/51/122 23/111/122 30/52/122
f 44/38/123 24/40/123 77/53/123
f 39/55/124 22/114/124 78/56/124
f 2/11/125 39/55/125 79/57/125
f 26/58/126 30/65/126 38/13/126
f 29/59/127 37/20/127 32/32/127
f 25/61/128 28/64/128 36/16/128
f 27/62/129 35/23/129 31/30/129
f 26/58/130 34/21/130 35/23/130
f 25/61/131 33/18/131 37/20/131
f 28/64/132 22/114/132 39/55/132
f 30/65/133 23/112/133 40/66/133
f 77/67/134 24/60/134 32/32/134
f 8/5/135 44/38/135 81/54/135
f 7/68/136 42/51/136 50/35/136
f 4/2/137 41/49/137 48/41/137
f 17/34/138 10/72/138 45/43/138
f 13/70/139 9/73/139 46/37/139
f 3/71/140 13/70/140 47/47/140
f 15/26/141 48/41/141 45/43/141
f 8/5/142 17/34/142 49/48/142
f 19/69/143 50/35/143 46/37/143
f 78/74/144 22/113/144 41/49/144
f 62/75/145 66/106/145 97/76/145
f 84/78/146 53/107/146 65/79/146
f 61/81/147 64/104/147 95/82/147
f 98/84/148 51/108/148 63/85/148
f 94/86/149 63/85/149 62/87/149
f 96/80/150 65/79/150 61/89/150
f 56/91/151 60/105/151 91/92/151
f 85/94/152 54/109/152 59/95/152
f 55/97/153 58/103/153 89/98/153
f 83/100/154 52/110/154 57/101/154
f 88/102/155 57/101/155 56/91/155
f 90/96/156 59/95/156 55/97/156
f 58/103/157 51/108/157 98/84/157
f 64/104/158 54/109/158 85/94/158
f 60/105/159 53/107/159 84/78/159
f 66/106/160 52/110/160 83/100/160
f 62/75/161 78/74/161 82/1/161
f 69/6/162 81/54/162 65/79/162
f 61/81/163 77/67/163 80/7/163
f 67/12/164 79/57/164 63/85/164
f 79/57/165 78/56/165 62/87/165
f 81/54/166 77/53/166 61/89/166
f 56/91/167 72/27/167 76/4/167
f 70/9/168 75/25/168 59/95/168
f 55/97/169 71/24/169 74/10/169
f 68/3/170 73/28/170 57/101/170
f 73/28/171 72/27/171 56/91/171
f 75/25/172 71/24/172 55/97/172
f 58/103/173 74/10/173 67/12/173
f 64/104/174 80/7/174 70/9/174
f 60/105/175 76/4/175 69/6/175
f 66/106/176 82/1/176 68/3/176
f 97/76/177 83/100/177 3/71/177
f 91/92/178 84/78/178 7/68/178
f 95/82/179 85/94/179 5/14/179
f 89/98/180 98/84/180 1/29/180
f 18/15/181 90/96/181 86/99/181
f 13/70/182 88/102/182 87/93/182
f 3/71/183 83/100/183 88/102/183
f 86/99/184 89/98/184 16/22/184
f 5/14/185 85/94/185 90/96/185
f 87/93/186 91/92/186 19/69/186
f 42/51/187 96/80/187 92/90/187
f 31/30/188 94/86/188 93/88/188
f 1/29/189 98/84/189 94/86/189
f 92/83/190 95/82/190 40/66/190
f 7/68/191 84/78/191 96/80/191
f 93/77/192 97/76/192 43/44/192
